<svg width="716" height="256" viewBox="0 0 716 256" fill="none" xmlns="http://www.w3.org/2000/svg">
<g clip-path="url(#clip0_110_469)">
<path d="M112.503 45.8154V195.301C112.503 196.826 111.91 198.289 110.856 199.367C109.801 200.445 108.37 201.051 106.878 201.051H5.62517C4.13328 201.051 2.7025 200.445 1.64758 199.367C0.59266 198.289 1.07461e-05 196.826 1.07461e-05 195.301V80.3121C-0.00255721 78.9688 0.455192 77.6669 1.2938 76.6325L29.4196 42.1357C29.9485 41.4867 30.6108 40.9648 31.3594 40.607C32.108 40.2493 32.9245 40.0646 33.7509 40.0659H106.878C108.37 40.0659 109.801 40.6717 110.856 41.7499C111.91 42.8281 112.503 44.2905 112.503 45.8154Z" fill="#E12454"/>
<path d="M46.4251 40.1514V87.6024C46.4251 89.1755 45.8137 90.6842 44.7254 91.7965C43.6371 92.9089 42.1611 93.5338 40.622 93.5338H1.10861e-05V81.671C-0.00263812 80.2851 0.469595 78.9421 1.33473 77.8749L30.3504 42.2867C30.8961 41.6171 31.5793 41.0787 32.3516 40.7096C33.1239 40.3406 33.9663 40.15 34.8189 40.1514H46.4251Z" fill="black" fill-opacity="0.15"/>
</g>
<path d="M138.528 201V41.091H203.532C209.454 41.091 215.016 41.8133 220.216 43.2578C225.561 44.5579 230.255 47.0135 234.3 50.6249C238.489 54.2362 241.739 59.292 244.051 65.7924C246.506 72.1483 247.734 80.4543 247.734 90.7105C247.734 98.6553 246.94 105.3 245.351 110.645C243.762 115.845 241.667 120.107 239.067 123.429C236.467 126.751 233.506 129.352 230.183 131.229C227.005 132.963 223.827 134.407 220.649 135.563L251.418 201H224.333L196.598 139.463C194.576 139.463 192.192 139.463 189.448 139.463C186.847 139.463 184.103 139.463 181.214 139.463C178.325 139.319 175.508 139.247 172.763 139.247C170.019 139.102 167.491 139.03 165.179 139.03V201H138.528ZM165.179 118.012H198.981C202.159 118.012 205.048 117.651 207.649 116.929C210.249 116.062 212.56 114.617 214.582 112.595C216.605 110.573 218.121 107.828 219.133 104.361C220.288 100.894 220.866 96.4163 220.866 90.9271C220.866 85.5824 220.288 81.2488 219.133 77.9264C218.121 74.4595 216.605 71.8594 214.582 70.126C212.56 68.2481 210.176 66.948 207.432 66.2257C204.832 65.5035 202.015 65.1423 198.981 65.1423H165.179V118.012ZM309.946 202.083C306.48 202.083 302.579 201.722 298.246 201C294.057 200.422 290.012 199.05 286.112 196.883C282.211 194.572 279.034 191.177 276.578 186.699C274.122 182.221 272.894 176.082 272.894 168.281V75.9763C272.894 69.187 273.905 63.5534 275.928 59.0753C277.95 54.4529 280.622 50.8415 283.945 48.2414C287.412 45.6412 291.168 43.8356 295.212 42.8244C299.401 41.6688 303.518 41.091 307.563 41.091C317.675 41.091 326.775 41.2354 334.864 41.5243C342.954 41.8133 350.321 42.1022 356.966 42.3911C363.755 42.68 370.039 43.0411 375.817 43.4745V65.7924H315.363C310.452 65.7924 306.552 67.0202 303.663 69.4759C300.918 71.9316 299.546 75.7596 299.546 80.9599V109.345L366.066 110.862V131.879L299.546 133.396V160.914C299.546 165.248 300.268 168.57 301.713 170.882C303.302 173.193 305.252 174.782 307.563 175.649C310.019 176.515 312.547 176.949 315.147 176.949H375.817V199.267C369.461 199.844 362.527 200.35 355.016 200.783C347.504 201.072 339.848 201.289 332.048 201.433C324.392 201.722 317.025 201.939 309.946 202.083ZM401.547 201V41.091H467.634C478.035 41.091 486.702 42.9689 493.636 46.7246C500.714 50.336 506.348 55.6807 510.537 62.7589C514.726 69.6926 517.687 78.0709 519.421 87.8936C521.299 97.7164 522.237 108.767 522.237 121.045C522.237 138.669 520.215 153.403 516.17 165.248C512.126 176.949 506.059 185.832 497.969 191.899C489.88 197.966 479.768 201 467.634 201H401.547ZM428.199 176.949H465.034C472.401 176.949 478.252 174.782 482.585 170.448C487.063 166.115 490.313 159.759 492.336 151.381C494.503 143.002 495.586 132.891 495.586 121.045C495.586 110.067 494.936 100.967 493.636 93.744C492.336 86.5213 490.458 80.8155 488.002 76.6263C485.547 72.4372 482.369 69.4759 478.468 67.7425C474.713 66.0091 470.235 65.1423 465.034 65.1423H428.199V176.949Z" fill="#222222"/>
<path d="M547.975 201V41.091H574.626V201H547.975ZM604.472 201V75.9763C604.472 69.187 605.483 63.5534 607.506 59.0753C609.528 54.4529 612.2 50.8415 615.523 48.2414C618.99 45.6412 622.745 43.8356 626.79 42.8244C630.979 41.6688 635.096 41.091 639.141 41.091C644.774 41.091 651.419 41.1632 659.075 41.3077C666.731 41.3077 674.748 41.5243 683.127 41.9577C691.505 42.2466 699.594 42.7522 707.395 43.4745V65.7924H646.291C641.524 65.7924 637.769 67.1647 635.024 69.9093C632.424 72.5094 631.124 76.1207 631.124 80.7432V113.028L697.644 114.545V135.563L631.124 137.08V201H604.472Z" fill="#E12454"/>
<defs>
<clipPath id="clip0_110_469">
<rect width="112.577" height="161" fill="white" transform="translate(0 40)"/>
</clipPath>
</defs>
</svg>
